<?xml version="1.0" encoding="UTF-8"?>
<svg id="LeaftIQ_Logo_Verde" xmlns="http://www.w3.org/2000/svg" viewBox="0 0 842.11 1812.48">
  <defs>
    <style>
      .cls-1 {
        fill: #306d2e;
      }
    </style>
  </defs>
  <g id="Logo_Verde">
    <g>
      <path class="cls-1" d="M377.06,161.01h10.8v43.93h21.53v9.32h-32.33v-53.25Z"/>
      <path class="cls-1" d="M434.88,206.85c5.4,0,9.28-1.83,12.97-5.29l5.25,5.25c-4.3,4.87-10,8.37-18.18,8.37-13.47,0-22.41-9.09-22.41-20.62s9.21-20.62,21.42-20.62,20.66,8.94,20.66,19.93c0,1.22-.19,2.74-.46,3.8h-31.04c.91,5.48,5.48,9.17,11.79,9.17ZM423.36,190.23h20.46c-1.14-4.68-4.87-7.95-9.97-7.95s-9.09,3.16-10.5,7.95Z"/>
      <path class="cls-1" d="M478.55,173.95c5.52,0,9.97,2.13,13.12,5.63v-4.72h10.35v39.41h-10.35v-4.72c-3.16,3.5-7.61,5.63-13.12,5.63-10.99,0-19.02-9.09-19.02-20.62s8.03-20.62,19.02-20.62ZM480.8,205.94c6.09,0,10.88-4.95,10.88-11.37s-4.79-11.37-10.88-11.37-10.76,4.98-10.76,11.37,4.72,11.37,10.76,11.37Z"/>
      <path class="cls-1" d="M534.24,167.44c-1.03-.11-2.43-.19-3.54-.19-4.34,0-6.01,1.79-6.01,5.48v2.13h9.55v9.09h-9.55v30.32h-10.46v-30.32h-6.66v-9.09h6.66v-2.24c0-9.32,5.21-13.88,15.48-13.88,1.6,0,3.31.19,4.53.38v8.33Z"/>
      <path class="cls-1" d="M552.8,161.01v53.25h-10.8v-53.25h10.8Z"/>
      <path class="cls-1" d="M590.42,160.1c16.17,0,28.57,12.02,28.57,27.54,0,7.07-2.59,13.43-6.92,18.26l7.27,7.99-7.19,6.35-7.68-8.44c-4.11,2.17-8.9,3.38-14.04,3.38-16.17,0-28.57-12.02-28.57-27.54s12.4-27.54,28.57-27.54ZM590.42,205.75c2.55,0,4.98-.53,7.19-1.48l-7.15-7.91,7.19-6.35,7.3,8.06c1.98-2.89,3.12-6.47,3.12-10.42,0-10.27-7.76-18.11-17.65-18.11s-17.65,7.84-17.65,18.11,7.76,18.11,17.65,18.11Z"/>
    </g>
    <path class="cls-1" d="M331.58,164.46c-1.32.37-2.63.91-3.89,1.44-16.58,7.11-33.11,23.62-40.37,40.12-5.79,13.17-6.67,28.06-4.18,42.15-.53.1-.58-.25-.76-.6-.57-1.13-1.15-3.15-1.54-4.42-2.53-8.15-3.39-16.47-6.39-24.66-5.39-14.71-16.03-28.59-31.06-34.15,13.61,9.93,22.69,25.19,26.58,41.48-14.36.39-27.94-5.41-37.39-16.14-12.19-13.84-14.16-31.9-12.29-49.68,22.18,2.5,45.96,9.21,53.03,33.04l1.61,7.2c1.53-23.05,14.2-43.45,34.12-54.94,15.16-8.74,32.45-11.09,49.61-13.02.37.28,1.08,5.61,1.19,6.51,2.82,23.31-.23,50.57-16.73,68.41-12.32,13.31-33.97,22.09-52.18,20.13-.27-.03-.57,0-.75-.25,4.38-25.31,20.78-47.89,41.38-62.61Z"/>
  </g>
</svg>